<?xml version="1.0" encoding="UTF-8" standalone="no"?>
<!DOCTYPE svg PUBLIC "-//W3C//DTD SVG 1.1//EN" "http://www.w3.org/Graphics/SVG/1.1/DTD/svg11.dtd">
<svg width="100%" height="100%" viewBox="0 0 1536 1024" version="1.1" xmlns="http://www.w3.org/2000/svg" xmlns:xlink="http://www.w3.org/1999/xlink" xml:space="preserve" xmlns:serif="http://www.serif.com/" style="fill-rule:evenodd;clip-rule:evenodd;stroke-linejoin:round;stroke-miterlimit:2;">
    <g id="Background" transform="matrix(2.43517,0,0,2.43517,-343.548279,-272.489802)">
        <path d="M514.498,119.662C529.141,121.612 529.272,120.485 530.457,120.97C532.432,121.778 532.415,121.607 534.482,121.668C537.528,122.271 537.405,122.326 540.47,122.687C542.508,123.008 542.413,122.988 544.384,122.839C547.337,124.005 547.336,123.82 550.51,124.41C554.221,125.412 554.172,125.452 554.498,125.508C555.834,125.828 557.171,126.149 558.507,126.47L559.492,126.54C560.799,126.926 562.106,127.312 563.412,127.698C564.914,128.113 564.825,128.083 566.495,128.528C568.433,129.257 568.27,129.578 570.402,129.686C571.314,129.948 572.332,130.45 572.493,130.53C573.947,131.212 573.861,131.271 575.425,131.643C576.306,131.859 577.364,132.328 577.527,132.401C579.452,133.141 579.322,133.204 581.433,133.615C583.422,134.241 587.035,136.224 587.506,136.482C587.881,136.706 588.255,136.93 588.63,137.154C593.897,139.355 594.877,139.496 595.45,139.578C595.806,139.872 596.163,140.167 596.519,140.461C598.48,141.634 598.34,141.797 599.312,141.856C599.493,141.867 600.545,141.93 601.406,142.698C602.346,143.339 602.284,143.352 603.446,143.586C604.113,143.935 604.779,144.284 605.445,144.633C606.315,145.399 606.275,145.401 607.425,145.616C608.893,146.868 608.633,146.971 608.76,147.065L610.348,147.778C611.371,148.382 611.317,148.333 612.411,148.623C613.074,148.983 613.737,149.343 614.401,149.703C615.652,151.023 615.527,151.078 617.308,151.786C618.865,152.831 618.8,152.744 620.432,153.628C621.291,154.358 621.22,154.33 622.304,154.725C626.083,157.429 626.171,157.274 626.48,157.532C627.107,157.916 627.733,158.301 628.359,158.686C628.709,159.001 629.059,159.316 629.409,159.631C631.732,161.848 631.798,161.639 634.402,163.617C635.886,164.717 635.898,164.597 637.259,165.779C638.345,166.721 638.337,166.573 639.534,167.461C639.888,167.765 640.243,168.069 640.597,168.374C641.398,169.146 641.305,169.149 642.416,169.592C642.663,169.825 644.373,171.438 645.484,172.52C648.081,175.439 647.989,175.444 651.206,177.77C656.125,181.957 655.668,182.306 660.405,186.584C661.215,188.819 661.599,188.517 663.574,190.437C663.878,190.795 664.183,191.154 664.488,191.513C666.232,193.822 666.029,194.069 668.164,194.747L668.365,195.63C669.525,197.426 669.431,197.425 671.113,198.718C671.383,199.026 673.181,201.075 674.192,202.814C675.502,204.069 675.076,204.291 676.254,205.678C677.182,206.756 677.114,206.665 677.182,206.756C677.452,207.12 677.215,207.174 677.472,207.521C678.765,209.231 678.658,209.203 680.223,210.639C681.09,211.672 681.088,211.662 681.159,211.754C682.568,213.558 682.041,213.8 683.445,215.539C686.096,218.82 685.604,219.082 687.387,221.589C689.212,224.736 689.04,224.753 691.218,227.724C691.65,229.227 691.581,229.205 692.414,230.544C692.698,230.918 692.983,231.291 693.268,231.664C695.795,235.493 700.369,246.963 700.912,248.325L701.383,248.555C702.354,252.346 702.833,252.154 703.438,253.525L703.693,254.408L704.279,254.607C704.511,255.849 704.743,257.092 704.976,258.335C705.456,259.136 705.653,258.928 706.127,259.714C706.642,262.695 706.565,262.606 707.484,265.506C707.829,266.502 708.174,267.498 708.52,268.494C708.85,269.495 709.181,270.496 709.512,271.497C709.59,271.657 710.094,272.696 710.207,273.604C710.727,276.251 710.635,276.231 710.711,276.449L710.957,278.416C711.093,278.979 711.917,282.39 712.677,285.457C712.867,288.045 712.754,287.964 713.263,290.526C713.351,291.246 713.99,296.44 714.778,299.46C714.8,300.185 714.989,306.463 715.258,308.509C715.631,319.031 715.989,318.962 715.465,329.501C715.45,330.833 715.435,332.165 715.42,333.497C715.215,336.05 715.334,335.953 715.139,338.452C714.666,340.981 714.797,340.917 715.078,343.448L714.619,344.516C714.118,345.988 714.015,345.902 714.155,347.483C713.197,350.431 713.393,350.385 713.027,353.419C712.56,357.22 712.534,357.174 712.511,357.503C711.779,360.323 711.773,360.303 711.72,360.549C711.497,361.582 711.653,361.516 711.442,362.493C711.141,363.832 710.841,365.171 710.54,366.51C710.389,366.807 710.431,366.798 710.125,368.355C710.125,368.355 709.491,370.32 709.436,370.49C709.161,371.504 708.885,372.517 708.61,373.531C707.73,375.776 707.721,375.672 707.512,376.504C707.399,377.139 707.285,377.773 707.172,378.408C706.958,379.108 706.744,379.809 706.531,380.509C706.189,381.507 705.848,382.505 705.507,383.503C705.121,384.814 704.734,386.125 704.348,387.436C704.289,387.652 703.063,389.519 702.946,389.697L702.361,391.448C700.686,395.348 699.733,394.42 695.503,394.726C687.926,394.712 688.035,394.722 680.499,394.743L679.503,394.741C675.835,394.734 672.167,394.726 668.499,394.719C663.499,394.719 658.498,394.719 653.498,394.72L651.503,394.742L646.5,394.728C642.5,394.723 638.499,394.719 634.499,394.714C629.5,394.716 624.5,394.719 619.501,394.722C578.999,394.765 579.03,394.552 567.5,395.016C558.954,394.65 559.051,394.59 550.44,394.755C549.874,394.641 550.108,395.241 549.59,395.136C549.394,395.097 549.531,394.967 548.767,392.779C549.124,392.435 549.776,392.533 550.133,392.188C550.257,392.068 550.236,392.066 551.531,390.535C553.374,389.955 553.148,389.74 554.555,388.566C556.324,387.068 556.748,386.194 556.871,385.942C557.197,385.815 558.381,385.354 560.491,383.488C561.641,382.56 561.565,382.625 562.607,381.637C562.935,381.294 563.262,380.95 563.59,380.606C566.015,379.743 565.694,379.317 567.603,377.619C567.97,377.317 568.338,377.015 568.705,376.713C570.161,375.44 571.343,374.664 573.402,372.393C575.866,369.766 575.868,369.867 578.497,367.497C580.542,365.918 580.438,365.933 581.804,363.827C583.269,362.76 583.253,362.875 584.519,361.518C584.848,361.18 585.176,360.842 585.505,360.504C586.452,359.454 587.272,358.601 587.429,358.438C588.203,357.644 588.177,357.695 588.643,356.652C590.079,355.013 592.187,352.828 592.502,352.502C594.804,350.146 594.652,350.137 596.566,347.561C598.433,345.429 598.324,345.448 600.163,343.264C601.06,342.247 607.712,334.707 608.598,328.56C608.87,328.194 609.142,327.827 609.414,327.46C610.973,323.432 611.173,323.595 612.217,319.348C612.423,318.485 614.6,309.324 614.825,308.577C615.436,306.491 616.023,302.056 616.098,301.484C616.141,300.155 616.183,298.825 616.226,297.495C615.8,291.635 616.019,291.671 615.176,286.569C614.968,285.544 614.759,284.519 614.55,283.494C614.377,281.865 614.205,280.235 614.032,278.605L613.446,277.516C613.305,276.887 613.164,276.257 613.023,275.628C612.851,274.893 612.269,272.4 610.068,266.669C609.315,265.506 609.348,265.557 608.647,264.405C608.28,262.832 608.36,262.848 607.573,261.462C607.293,261.089 607.012,260.716 606.732,260.344C605.495,258.458 605.828,258.334 604.52,256.489C604.227,256.126 603.934,255.762 603.641,255.399C603.304,254.244 603.358,254.3 602.713,253.347C600.692,250.916 601.359,250.207 598.871,249.262C597.913,248.265 597.9,248.286 597.836,248.185C597.38,247.469 597.899,247.359 597.405,246.584C596.354,245.488 596.432,245.569 595.417,244.572C595.087,244.242 594.756,243.911 594.426,243.581C593.024,241.976 593.122,241.969 591.466,240.537C590.596,239.79 590.671,239.806 589.606,239.38C589.266,239.046 588.927,238.712 588.587,238.377C586.671,236.184 586.687,236.312 584.416,234.609C583.898,234.198 583.934,234.259 581.391,232.674L580.554,232.395C579.554,231.554 579.295,230.963 576.801,230.075C574.211,228.626 574.344,228.494 571.587,227.29C567.931,225.371 567.86,225.537 567.55,225.359C565.552,225.111 564.614,223.957 562.674,224.125C562.292,223.884 561.909,223.642 561.527,223.401C557.837,222.422 557.856,222.415 557.547,222.364C556.199,222.065 554.851,221.766 553.504,221.467C550.535,220.733 550.608,220.729 547.504,220.459C546.196,220.363 544.888,220.268 543.58,220.172C541.727,219.944 539.147,219.171 525.538,219.95C520.952,220.658 520.998,220.329 516.498,221.477C511.907,222.582 511.935,222.517 511.55,222.648L509.608,222.913C507.86,223.631 496.39,228.338 488.467,233.451C486.418,234.913 486.508,234.938 484.497,236.496C484.137,236.799 483.777,237.102 483.418,237.405C482.555,238.23 482.405,237.864 481.564,238.581C479.387,240.455 479.411,240.365 477.476,242.472C477.236,242.713 477.23,242.693 474.448,245.452C471.49,248.032 471.86,248.398 468.493,250.524C468.185,250.162 467.877,249.8 467.57,249.438C467.169,248.366 467.179,248.467 466.414,247.573C466.115,247.21 465.817,246.847 465.518,246.484C464.057,245.126 464.22,244.989 464.085,244.884C463.222,244.212 463.322,244.266 462.45,243.559C461.488,242.503 461.54,242.558 460.516,241.482C460.191,241.14 459.866,240.798 459.54,240.456C459.177,240.156 458.813,239.857 458.449,239.557C457.566,238.811 457.672,238.817 456.56,238.429C456.227,238.093 455.893,237.757 455.559,237.421C455.413,237.249 454.635,236.335 453.534,235.454C452.621,234.778 452.697,234.796 451.594,234.37C447.621,231.885 447.826,231.736 447.481,231.535C446.586,230.807 446.646,230.783 445.542,230.432C444.335,229.389 444.32,229.574 442.71,229.168C441.317,227.552 441.298,227.678 439.382,226.75C437.598,225.809 437.655,225.95 433.549,224.41C433.303,224.273 433.342,224.383 430.353,222.94L428.475,222.568C426.538,221.919 426.552,221.917 426.383,221.867C425.447,221.588 425.493,221.778 424.503,221.483C422.549,220.736 422.629,220.779 420.495,220.516L419.393,219.99C419.136,219.932 419.149,219.94 415.525,219.337C412.008,218.791 412.082,218.892 408.48,218.739L406.494,218.625L404.499,218.546C400.48,217.965 400.517,217.966 396.501,218.518L394.508,218.618L393.513,218.641C389.338,218.744 389.388,218.326 385.48,219.299L384.469,219.294C383.765,219.545 383.061,219.797 382.357,220.049C379.448,219.895 379.546,220.357 375.51,221.557C374.779,221.758 368.063,223.603 366.51,224.521C365.154,225.371 364.924,224.651 363.529,225.565C361.963,226.591 362.005,226.448 360.499,227.497C360.342,227.584 359.321,228.144 358.476,228.464C357.821,228.817 357.166,229.17 356.512,229.522C352.69,232.41 352.288,231.643 348.626,234.653C347.497,235.633 347.578,235.561 346.544,236.552C345.947,237.072 343.084,239.565 339.544,243.538C338.505,244.704 339.121,245.029 338.11,246.178C335.46,249.189 335.212,248.891 332.437,253.472C332.088,254.124 331.739,254.776 331.39,255.427C331.098,256.289 330.466,257.298 330.37,257.451C329.664,258.356 329.651,258.293 329.383,259.425C329.132,260.166 328.768,259.822 328.497,260.499C328.26,260.87 328.023,261.241 327.785,261.612C327.534,262.738 327.468,262.612 326.949,263.68C324.927,268.882 325.397,268.968 325.317,269.418C325.098,270.35 324.5,271.318 324.405,271.471C323.814,273.453 323.771,273.378 323.39,275.472C322.96,276.941 322.96,276.869 323.025,278.362C322.065,280.241 321.678,286.768 321.634,287.507L321.507,289.5C320.973,295.016 320.864,294.958 321.498,300.5L321.543,301.498C322.347,309.224 322.335,309.216 322.397,309.533C322.865,313.028 324.391,317.754 324.617,318.454C324.842,319.365 325.289,320.386 325.36,320.549C326.487,323.327 326.359,323.283 326.47,323.51C327.072,324.516 326.872,324.549 327.449,325.527C327.822,327.548 328.119,327.399 328.805,329.339C330.254,331.453 329.91,331.565 331.082,333.802C332.896,337.406 332.883,337.315 335.37,340.595C337.259,342.437 337.325,342.359 337.423,342.565C338.896,344.665 338.751,344.684 340.426,346.568C341.726,348.304 341.688,348.26 343.248,349.688L343.544,350.46C344.518,351.483 345.331,352.348 345.486,352.513C346.9,354.147 346.774,354.169 348.45,355.538L349.136,355.724C349.573,356.335 350.009,356.945 350.446,357.556C351.81,359.291 351.65,359.339 353.348,360.625C353.711,360.936 354.074,361.247 354.437,361.558C354.688,361.888 361.148,368.415 361.867,369.089C363.388,370.642 365.293,372.146 365.606,372.394C368.167,374.584 368.135,374.469 368.349,374.656C368.349,374.656 369.327,375.529 369.412,375.605C371.38,377.702 371.255,377.698 373.546,379.448C374.404,380.171 374.294,380.159 375.417,380.591C376.966,382.074 376.94,382.008 378.501,383.498C380.839,385.706 380.83,385.63 383.387,387.637C384.32,388.314 384.273,388.272 385.445,388.566C385.787,388.889 386.13,389.211 386.472,389.534C387.506,390.542 387.427,390.471 388.55,391.442C388.929,391.711 389.307,391.981 389.686,392.25C391.793,392.604 391.717,393.203 391.694,393.386C391.508,394.841 390.734,394.712 360.5,394.701C349.236,394.684 348.13,394.692 338.498,394.717L337.503,394.718L332.499,394.705L328.498,394.701C326.838,394.809 325.178,394.916 323.518,395.024C320.424,394.823 320.512,394.851 317.465,395.074C316.144,394.951 314.823,394.827 313.502,394.704C309.774,394.573 309.602,395.417 306.489,393.504C305.694,392.038 306.337,391.865 305.488,390.505C304.871,387.438 304.644,387.544 302.335,381.549C302.186,380.893 301.883,381.085 301.659,380.43C300.486,375.341 300.528,375.41 300.272,374.566C300.01,373.879 299.749,373.192 299.488,372.504L299.237,371.586C298.454,368.42 298.459,368.531 297.626,365.47C297.372,365.088 297.117,364.706 296.863,364.324C296.428,360.857 296.517,360.893 295.601,357.488C295.333,356.447 295.065,355.406 294.797,354.366C294.979,353.123 294.326,349.911 294.074,346.557C293.831,344.824 293.825,344.934 293.248,341.546C293.18,341.144 293.231,341.211 292.607,336.489C292.473,335.501 292.339,334.513 292.205,333.524C292.229,332.186 292.254,330.848 292.279,329.51L292.212,324.502L292.2,322.504L292.2,319.498C292.247,316.452 292.226,316.564 292.215,307.477C292.338,306.154 292.46,304.831 292.582,303.508C292.693,302.218 292.804,300.929 292.914,299.639C293.423,297.027 293.367,297.121 293.651,294.504C294.096,292.988 294.087,293.06 293.934,291.56C294.366,289.665 294.439,289.727 294.515,288.502C294.575,288.019 294.875,285.614 295.598,282.51C295.965,281.007 296.937,277.808 297.061,277.401C297.387,276.328 296.829,275.692 296.836,275.65C296.896,275.248 297.3,275.8 297.353,275.454C297.428,274.969 296.908,275.18 296.989,274.656C297.324,273.971 297.659,273.285 297.993,272.599C298.702,270.082 299.119,270.185 298.851,267.654C299.758,266.285 299.939,266.466 300.003,266.342C300.187,265.066 300.371,263.79 300.555,262.514C301.121,261.503 300.771,261.402 301.41,260.46C301.951,259.661 302.366,257.727 302.418,257.482C302.768,256.483 303.117,255.484 303.466,254.485C305.645,250.769 304.533,250.359 306.559,246.517C307.325,245.145 307.44,245.258 307.906,243.698C308.149,243.316 308.393,242.933 308.636,242.55C310.388,238.791 310.226,238.76 310.396,238.446C314.282,231.101 314.084,231.078 314.516,230.508C316.562,226.91 316.293,226.793 316.488,226.493C317.433,225.101 317.31,225.128 319.672,220.597C321.388,218.721 321.203,218.672 322.704,216.645C325.938,212.277 325.551,211.883 325.637,211.603C325.922,211.259 326.512,210.546 329.093,207.208L329.443,206.462C330.206,205.592 330.188,205.696 330.655,204.62C331.619,203.57 331.58,203.615 332.488,202.491C333.287,201.643 333.269,201.719 333.71,200.648C335.912,198.768 335.725,198.71 337.527,196.523C338.229,195.599 338.209,195.675 338.619,194.609C338.964,194.278 339.308,193.948 339.653,193.617C340.751,192.632 340.695,192.687 341.582,191.571C342.638,190.306 344.214,188.696 344.451,188.454C344.776,188.113 345.102,187.772 345.428,187.431C346.201,186.607 346.182,186.663 346.622,185.616C347.253,184.968 354.087,177.951 354.597,177.6C355.671,177.162 355.597,177.173 356.416,176.412C357.989,174.887 357.939,174.978 359.442,173.427C359.802,173.126 360.162,172.825 360.522,172.523C362.232,171.216 362.152,171.287 363.661,169.676C363.989,169.348 364.317,169.02 364.645,168.693C367.643,167.537 367.236,167.015 368.602,165.639L368.839,164.901L369.681,164.705C372.101,163.741 371.764,163.358 373.755,161.81C374.872,160.961 374.814,161.016 375.751,159.997C376.203,159.862 377.17,159.574 380.562,156.583C381.722,156.231 381.629,156.233 382.52,155.531L382.808,154.933L383.632,154.671C384.288,154.33 384.944,153.988 385.6,153.647C386.966,152.632 387.874,153.013 388.77,150.851C390.017,149.925 390.311,150.656 391.586,149.707C392.246,149.216 401.29,143.993 401.624,143.695C403.177,143.404 403.045,143.259 408.515,140.533L409.391,140.29C410.572,139.647 412.056,139.125 412.294,139.041C412.471,138.92 414.344,137.642 414.54,137.571C415.52,137.194 416.499,136.817 417.479,136.44C422.36,133.959 422.621,134.879 427.535,132.634C428.09,132.381 433.141,130.073 434.597,129.75C438.117,129.135 438.101,129.191 438.395,129.097C438.802,128.967 441.387,128.139 443.453,127.379C444.466,127.07 445.48,126.76 446.493,126.45C449.148,125.761 449.107,125.839 451.615,124.817C453.09,124.989 453.043,124.91 454.493,124.433C460.431,123.354 460.341,123.396 461.41,123.142C464.541,122.713 468.815,122.262 469.46,122.194C470.474,121.966 471.487,121.738 472.501,121.509C473.473,121.367 474.446,121.224 475.418,121.082L479.444,121.009C482.483,120.207 482.433,120.53 491.487,120.034C494.414,119.54 502.269,119.695 514.498,119.662L609.086,193.489C609.081,194.364 609.021,204.42 609.021,204.42C608.971,204.794 608.373,204.939 608.323,205.313C607.157,205.082 607.151,205.587 593.467,205.284C593.123,206.987 593.098,206.916 592.371,208.466C592.27,209.168 592.17,209.869 592.069,210.57C592.743,213.799 591.235,213.915 592.328,216.527C592.971,218.064 592.855,218.061 592.423,219.586C594.909,220.42 594.919,219.969 597.484,220.098C599.998,219.764 599.935,219.586 602.514,220.1C607.45,220.333 607.462,220.075 609.181,220.74C609.217,221.657 609.253,222.573 609.29,223.49C609.054,225.564 609.156,225.48 608.919,227.493C609.597,234.196 610.752,233.848 610.756,234.421C610.768,235.795 611.114,235.625 612.467,235.986C613.821,235.946 615.175,235.905 616.528,235.865C616.808,235.632 617.339,236.164 617.619,235.931C617.977,235.633 617.526,231.946 619.537,232.26C621.147,232.511 621.057,232.679 622.708,232.525C621.671,221.375 622.836,220.335 623.606,219.647C626.362,219.849 626.301,219.973 627.53,219.763C629.188,219.766 630.846,219.769 632.503,219.772L633.508,219.792C632.298,218.278 631.338,218.146 632.634,216.742C634.456,214.769 633.314,208.731 633.616,208.525C633.873,208.349 634.194,208.8 634.505,208.811C636.883,208.896 635.111,210.187 635.335,212.546C635.777,217.184 635.134,217.119 635.245,217.5C635.426,218.12 636.453,218.231 636.634,218.851C637.775,217.231 637.706,217.253 638.601,215.502C638.644,208.555 638.573,208.591 638.442,205.562C637.797,205.489 637.151,205.416 636.505,205.343C634.52,206.104 634.499,206.114 632.502,205.401L631.501,205.412L628.5,205.423L627.5,205.428L626.5,205.425C624.327,206.013 624.322,206.643 622.384,205.632C620.224,203.114 622.08,202.714 621.797,195.512C619.147,197.735 618.805,197.539 618.545,197.389C616.764,196.367 620.95,194.275 619.959,192.304C619.343,191.079 612.175,191.157 611.492,191.164C608.533,191.196 609.303,192.352 609.086,193.489L514.498,119.662L632.5,297.409C631.729,297.491 630.037,297.147 629.825,298.598C629.719,299.319 629.761,307.36 629.762,308.514C630.072,310.14 630.279,310.14 629.564,311.573C628.051,311.983 628.092,311.818 626.509,311.457C622.699,311.641 621.014,311.29 620.546,311.192C617.373,311.864 616.738,312.255 616.147,315.532C616.405,315.758 616.047,316.323 616.305,316.549C616.575,316.784 617.063,316.436 617.378,316.607C619.699,317.87 615.06,318.443 614.808,318.475C614.581,320.91 614.485,320.842 614.643,323.349C614.92,323.271 615.173,323.732 615.45,323.654C617.486,323.079 617.316,322.713 617.495,322.717C626.917,322.967 628.259,320.719 630.054,324.558C628.659,333.827 629.857,336.758 630.256,337.734C633.321,337.972 633.301,337.976 633.566,337.991C634.152,338.026 634.049,337.883 634.616,337.916C637.079,337.789 636.987,337.645 638.495,337.911C640.007,337.428 640.053,338.183 641.609,337.686C641.731,337.646 641.692,337.601 642.737,336.541C642.825,335.596 643.404,329.421 642.853,324.686C643.086,324.326 643.319,323.966 643.552,323.606C648.498,322.762 648.424,322.968 653.511,322.936C654.094,322.849 654.001,322.999 654.605,322.909C654.76,322.886 654.747,322.879 656.521,322.506C656.338,321.827 656.154,321.147 655.97,320.468C655.116,316.456 655.632,316.493 655.818,315.531C655.556,315.254 656.036,314.666 655.775,314.39C655.65,314.258 652.567,313.88 651.704,312.235C651.246,311.361 651.123,311.542 650.487,310.785C648.499,310.937 648.579,310.958 646.507,310.808C642.709,313.8 641.446,311.336 641.95,306.54C641.943,301.878 642.426,301.921 641.547,297.346L636.497,297.377C634.506,297.834 634.553,297.868 632.5,297.409L514.498,119.662L482.53,197.109C480.57,197.45 480.448,197.547 480.047,199.494L480.034,205.431L479.328,206.329C476.11,206.833 473.981,206.485 469.503,206.537C467.282,206.563 467.528,207.525 467.426,214.514C469.505,215.025 469.007,215.622 469.333,215.942C476.323,216.928 479.126,214.999 479.36,218.506L479.308,220.507C481.567,222.609 481.909,223.429 482.039,223.741C482.438,224.699 482.726,224.31 483.474,224.929C486.513,224.091 487.636,224.709 487.758,221.53C487.836,219.524 487.855,219.629 487.959,217.594L488.483,216.487C489.406,215.939 489.376,216.002 490.484,216.246C492.82,216.303 495.157,216.359 497.493,216.416C497.424,214.744 497.2,214.69 498.316,213.452C498.528,212.46 498.739,211.468 498.95,210.477C498.284,209.744 498.641,209.435 497.697,209.099C495.904,208.46 496.012,208.249 495.504,206.435C492.506,206.502 492.553,206.824 488.676,206.303C488.408,205.021 488.139,203.739 487.87,202.458C487.523,201.042 487.875,200.44 486.471,200.613C482.916,201.051 484.704,198.925 484.197,197.71C484.143,197.579 484.074,197.666 482.53,197.109L514.498,119.662L609.51,189.555C608.433,190.326 608.471,190.286 607.885,191.521L608.384,192.495L609.086,193.489C609.303,192.352 608.533,191.196 611.492,191.164C612.175,191.157 619.343,191.079 619.959,192.304C620.95,194.275 616.764,196.367 618.545,197.389C618.805,197.539 619.147,197.735 621.797,195.512C622.172,194.838 622.547,194.164 622.922,193.489C623.039,190.283 622.711,189.828 619.5,189.507C618.324,190.097 615.25,192.041 609.51,189.555L514.498,119.662L635.464,314.508C635.437,314.177 635.172,310.895 635.229,310.366C635.39,308.845 635.496,308.945 635.471,307.494C635.437,305.487 633.545,305.432 633.534,307.494C633.527,308.77 633.448,323.171 633.613,323.455C635.89,327.368 635.351,316.377 635.464,314.508L514.498,119.662L484.5,195.646L483.527,196.102L482.53,197.109C484.074,197.666 484.143,197.579 484.197,197.71C484.704,198.925 482.916,201.051 486.471,200.613C487.875,200.44 487.523,201.042 487.87,202.458L488.665,201.489L488.93,200.493C489.076,198.148 489.601,198.08 488.674,196.36C488.27,195.61 488.048,195.937 484.5,195.646L514.498,119.662L636.634,218.851C636.453,218.231 635.426,218.12 635.245,217.5C635.134,217.119 635.777,217.184 635.335,212.546C635.111,210.187 636.883,208.896 634.505,208.811C634.194,208.8 633.873,208.349 633.616,208.525C633.314,208.731 634.456,214.769 632.634,216.742C631.338,218.146 632.298,218.278 633.508,219.792L635.511,219.89L636.634,218.851L514.498,119.662L622.708,232.525C621.057,232.679 621.147,232.511 619.537,232.26C617.526,231.946 617.977,235.633 617.619,235.931C617.339,236.164 616.808,235.632 616.528,235.865L617.503,236.609C621.522,236.786 621.465,236.988 622.565,236.639C623.795,236.248 623.244,235.827 623.478,233.5L622.708,232.525L514.498,119.662L650.487,310.785C651.123,311.542 651.246,311.361 651.704,312.235C652.567,313.88 655.65,314.258 655.775,314.39C656.036,314.666 655.556,315.254 655.818,315.531L656.673,314.494C657.096,309.458 654.784,310.59 650.487,310.785L514.498,119.662L629.762,308.514C629.557,308.792 629.868,309.268 629.663,309.545C628.392,311.265 619.383,310.324 618.492,310.231C619.177,310.552 619.861,310.872 620.546,311.192C621.014,311.29 622.699,311.641 626.509,311.457C629.376,311.496 629.319,311.574 629.564,311.573C630.279,310.14 630.072,310.14 629.762,308.514L514.498,119.662L488.483,216.487L487.959,217.594C487.855,219.629 487.836,219.524 487.758,221.53C487.636,224.709 486.513,224.091 483.474,224.929L482.497,225.573C486.558,225.298 488.624,227.636 488.848,223.544C488.716,219.799 488.723,219.823 488.706,219.499C488.651,218.464 488.485,218.576 488.427,217.482L488.483,216.487L514.498,119.662L479.308,220.507L479.167,221.528C478.933,224.176 478.181,226.008 482.497,225.573L483.474,224.929C482.726,224.31 482.438,224.699 482.039,223.741C481.909,223.429 481.567,222.609 479.308,220.507L514.498,119.662L622.922,193.489C622.547,194.164 622.172,194.838 621.797,195.512C622.08,202.714 620.224,203.114 622.384,205.632L622.684,204.409C623.069,202.909 623.026,202.996 623.166,201.504C622.405,199.027 622.404,199.058 623.137,196.498C623.065,195.495 622.994,194.492 622.922,193.489L514.498,119.662L495.504,206.435C496.012,208.249 495.904,208.46 497.697,209.099C498.641,209.435 498.284,209.744 498.95,210.477L499.657,209.49C499.685,206.307 498.782,206.264 495.504,206.435L514.498,119.662L608.919,227.493C608.912,234.657 607.891,235.07 609.542,236.442C609.662,236.543 609.687,236.452 611.495,236.566L612.467,235.986C611.114,235.625 610.768,235.795 610.756,234.421C610.752,233.848 609.597,234.196 608.919,227.493L514.498,119.662L591.615,209.504C591.133,218.055 591.902,218.967 592.423,219.586C592.855,218.061 592.971,218.064 592.328,216.527C591.235,213.915 592.743,213.799 592.069,210.57L591.615,209.504L514.498,119.662L641.95,306.54C641.446,311.336 642.709,313.8 646.507,310.808C643.821,310.546 643.847,311.298 643.668,311.155C643.259,310.83 643.545,310.081 643.265,309.64C643.143,309.447 642.642,309.697 642.602,309.472C642.541,309.13 643.131,308.883 643.07,308.542L642.65,307.514L641.95,306.54L514.498,119.662L641.547,297.346C642.426,301.921 641.943,301.878 641.95,306.54L642.65,307.514C642.643,303.424 642.221,303.469 643.062,299.509C642.624,298.112 642.607,298.202 641.547,297.346L514.498,119.662L623.879,218.931C623.879,217.73 624.474,217.764 623.878,216.157C623.811,215.977 619.065,206.504 621.581,215.474C621.795,216.237 623.676,218.669 623.879,218.931L514.498,119.662L634.616,337.916C634.764,337.538 636.611,332.834 634.5,332.835C634.093,332.836 632.42,332.837 634.616,337.916L514.498,119.662L480.514,195.633C479.327,196.278 479.314,196.187 478.897,196.644C479.052,197.261 479.206,197.878 479.361,198.495L480.047,199.494C480.448,197.547 480.57,197.45 482.53,197.109L483.527,196.102C481.927,196.191 481.986,196.101 480.514,195.633L514.498,119.662L638.601,215.502C637.706,217.253 637.775,217.231 636.634,218.851L635.511,219.89C635.756,219.864 638.566,219.559 638.566,219.559C638.737,219.385 638.574,219.338 638.672,216.509L638.601,215.502L514.498,119.662L616.147,315.532L615.714,316.549L614.808,318.475C615.06,318.443 619.699,317.87 617.378,316.607C617.063,316.436 616.575,316.784 616.305,316.549C616.047,316.323 616.405,315.758 616.147,315.532L514.498,119.662L486.362,207.188C485.612,205.825 485.891,204.824 484.531,205.581C484.361,205.676 482.671,207.653 486.362,207.188L514.498,119.662L633.632,300.53C634.006,304.388 635.688,300.744 635.377,300.527C635.263,300.448 635.248,300.528 633.632,300.53L514.498,119.662L635.5,328.5C634.665,327.668 634.635,326.945 633.791,327.793C633.687,327.898 632.822,331.167 635.5,328.5L514.498,119.662L653.511,322.936L654.513,323.639L655.432,324.066C655.795,323.546 656.158,323.026 656.521,322.506C654.747,322.879 654.76,322.886 654.605,322.909C654.001,322.999 654.094,322.849 653.511,322.936L514.498,119.662L467.426,214.514C467.807,215.942 467.924,216.054 469.333,215.942C469.007,215.622 469.505,215.025 467.426,214.514L514.498,119.662L604.5,218.138C604.682,217.79 605.31,217.849 605.492,217.501C606.048,216.439 602.907,216.591 603.343,217.394C603.562,217.797 604.281,217.735 604.5,218.138L514.498,119.662L644.491,320.498C645.185,320.498 644.852,321.099 645.5,321.099C645.594,321.099 646.184,321.099 646.509,320.498C646.586,320.356 646.637,318.408 644.491,320.498L514.498,119.662Z" style="fill:rgb(5,134,64);fill-opacity:1;"/>
        <path d="M345.543,458.642C347.575,458.974 347.481,458.949 349.489,459.132L354.5,459.126L355.499,459.122C358.833,459.127 362.168,459.132 365.502,459.137L367.499,459.14L371.505,459.137C372.499,459.069 373.492,459.001 374.486,458.934C381.869,459.656 381.795,459.164 389.511,458.913L390.491,458.912C397.666,459.752 397.617,458.904 399.501,458.815C407.403,459.732 430.796,459.041 433.516,458.961C434.213,458.94 434.91,458.92 435.607,458.899C438.136,458.32 438.181,457.733 441.311,458.939C442.391,459.384 442.301,459.313 443.472,459.529C443.83,459.808 443.553,460.018 447.319,463.684C447.968,464.315 455.099,471.256 455.419,471.591C456.413,472.623 456.36,472.57 457.394,473.611C457.725,473.945 458.055,474.279 458.386,474.614C461.232,477.407 463.011,482.033 466.439,478.434C467.686,477.118 467.927,477.363 468.605,475.605C470.852,473.829 470.988,474.052 472.635,471.655C473.603,470.605 473.515,470.677 473.603,470.605C473.968,470.306 474.065,470.764 474.452,470.447C477.403,467.948 477.774,467.657 478.603,465.656C480.898,463.865 480.671,463.77 482.692,461.686C484.302,460.024 484.105,459.684 486.42,459.185L490.496,459.156C496.832,459.161 503.168,459.167 509.504,459.172L510.496,459.172L514.5,459.165C519.596,459.157 519.497,459.047 524.5,458.756C530.284,459.919 554.869,459.026 557.508,458.93L558.487,458.932C566.594,459.217 566.515,459.77 574.499,458.817C580.538,459.231 580.453,459.131 586.506,458.946L588.49,458.942L589.491,458.848C592.512,459.049 592.421,459.078 595.511,458.928L596.496,459.178C599.831,459.177 603.167,459.176 606.502,459.175C617.539,459.144 617.48,459.14 628.502,459.146C630.833,459.143 633.165,459.139 635.497,459.136C637.832,459.142 640.168,459.147 642.503,459.152L644.498,459.153L648.502,459.154C653.032,459.128 652.997,459.453 657.501,458.493C658.768,459.696 658.527,459.786 658.475,461.477C656.97,461.902 656.965,461.95 656.432,463.437C653.945,466.019 653.996,465.965 651.429,468.428C651.086,468.756 650.744,469.084 650.402,469.411C649.454,470.382 644.316,475.644 638.404,481.398C636.658,482.005 636.851,482.231 635.529,483.535C631.578,487.116 631.428,486.796 627.402,490.393C625.975,490.959 626.03,490.865 624.816,491.918C623.197,493.323 623.24,493.287 621.498,494.498C620.398,495.427 620.473,495.36 619.416,496.363C617.793,497.306 617.85,497.194 616.389,498.361C615.304,498.71 615.4,498.693 614.483,499.472C614.292,499.627 614.208,499.453 611.807,500.974L611.444,501.419C610.311,502.208 608.628,503.168 608.377,503.311C606.587,503.972 606.706,504.026 605.405,505.351C604.751,505.698 604.097,506.046 603.443,506.393L602.54,506.566C601.047,507.643 600.909,507.339 599.502,508.504C598.244,509.498 594.759,511.043 594.331,511.232C593.233,511.585 593.291,511.606 592.45,512.354C589.181,513.967 587.875,514.276 587.456,514.375C585.244,514.899 580.538,518.041 577.526,518.599C573.899,519.27 574.29,520.331 570.593,520.786C570.242,520.829 570.32,520.947 566.475,522.396C565.533,522.582 564.591,522.768 563.649,522.953C562.138,523.851 562.08,523.594 560.469,524.356C558.815,524.744 557.16,525.132 555.506,525.521C554.539,525.654 553.573,525.788 552.606,525.921C549.991,526.553 550.169,526.793 547.481,527.394C546.977,527.551 547.038,527.4 546.517,527.562C546.349,527.614 546.364,527.618 544.449,528.315C543.021,528.46 543.136,528.493 539.472,529.207L537.495,529.44C536.986,529.598 537.045,529.428 536.518,529.592C536.35,529.644 536.364,529.644 534.442,530.294C533.362,530.104 533.303,529.584 530.441,531.021C526.861,530.615 526.955,530.768 523.478,531.267C521.439,531.168 521.498,531.276 519.503,531.547C517.489,531.795 515.474,532.042 513.459,532.29C510.906,532.074 510.981,532.097 508.485,532.356C508.168,532.396 508.233,532.347 504.501,532.677L499.506,532.771C497.402,532.546 497.507,532.556 495.488,532.601C494.485,532.374 493.481,532.147 492.478,531.921L489.466,531.971C488.388,531.893 488.477,531.992 487.456,531.919C486.9,531.879 486.941,531.879 480.502,531.384C476.611,530.284 476.607,530.66 472.504,530.478C472.031,530.358 472.107,530.457 466.51,529.368C466.352,529.333 466.435,529.056 461.542,528.287C459.713,528.064 459.753,527.967 458.734,528.079C457.994,527.856 457.253,527.633 456.513,527.41C454.503,526.84 454.628,526.771 452.494,526.525C451.07,526.034 451.122,525.954 449.638,526.156C447.97,525.14 448.031,525.119 447.411,524.879L444.509,524.451C443.832,524.151 443.156,523.851 442.479,523.551C441.173,523.129 439.867,522.706 438.561,522.284C435.388,521.841 434.87,521.462 434.607,521.269C432.699,520.39 432.766,520.32 430.59,520.366C429.523,519.459 427.754,518.651 427.492,518.532C425.935,518.214 426.168,517.555 423.587,517.342L423.38,516.78C423.083,516.644 423.017,516.864 419.51,515.483C419.343,515.379 414.737,513.09 414.321,512.884C414.188,512.817 414.188,512.847 412.53,512.393C411.252,511.502 411.332,511.474 409.852,511.036C409.433,510.794 409.014,510.553 408.595,510.311C407.641,509.652 407.691,509.638 406.567,509.392C405.705,509.081 404.764,508.306 404.622,508.19C401.39,505.772 400.96,506.592 397.625,504.291C397.041,503.867 397.011,504.001 396.511,503.483C396.387,503.354 396.274,503.557 394.549,502.408C393.68,501.657 393.73,501.684 392.578,501.398C392.361,501.201 392.28,501.384 389.663,499.183C388.291,498.024 388.173,498.31 386.609,497.329C384.313,495.142 383.065,494.45 381.553,493.427C380.888,493.094 380.222,492.76 379.556,492.427C377.378,490.434 374.007,487.865 373.51,487.486C372.625,486.791 372.699,486.811 371.629,486.356C370.797,485.574 370.575,486.015 369.743,485.238C368.913,484.464 369.349,484.225 368.525,483.47C367.497,482.484 367.563,482.547 366.482,481.521C366.273,481.325 366.171,481.535 363.722,479.248C362.125,477.757 362.166,477.849 360.548,476.452C359.386,475.565 359.585,475.437 358.456,474.554C356.984,472.947 357.089,472.957 355.499,471.501C352.967,469.014 353.07,469.004 350.431,466.558C350.116,466.234 348.43,464.502 346.602,462.393C345.125,460.674 344.359,460.548 345.543,458.642Z" style="fill:rgb(4,134,64);fill-opacity:1;"/>
        <path d="M429.489,243.467C430.999,243.325 430.917,243.312 432.511,243.461C432.859,243.787 433.207,244.113 433.555,244.44C433.856,244.943 434.316,245.715 435.498,251.5L435.897,254.4C436.4,260.564 436.508,260.46 437.464,266.501C437.778,269.629 437.793,269.531 438.394,272.527L438.648,275.486L438.73,276.474C438.695,279.26 438.689,279.242 438.692,279.483C438.706,280.55 438.821,280.452 438.834,281.462C439.268,282.986 439.07,282.957 439.512,284.499C440.325,289.154 440.334,289.122 440.39,289.527C440.735,292.025 440.484,291.977 440.826,294.45C440.929,297.046 440.913,296.981 441.563,299.498C441.687,300.798 441.81,302.097 441.934,303.397C442.726,307.222 442.553,307.171 442.657,307.486L442.828,309.448C442.864,311.603 442.804,311.53 443.56,313.497C443.687,315.465 443.815,317.433 443.943,319.402C444.593,323.219 444.57,323.213 444.67,323.488L444.863,325.44C444.93,328.058 444.919,327.963 445.576,330.498C445.688,332.134 445.801,333.769 445.914,335.405C446.743,339.228 446.551,339.172 446.658,339.486L446.838,341.434C446.927,344.081 446.962,343.985 447.586,346.496C447.688,348.478 447.789,350.46 447.89,352.442C448.143,353.455 448.396,354.469 448.649,355.482L448.885,357.418C448.956,360.016 448.943,359.95 449.37,362.515C449.727,365.253 449.679,365.25 449.714,365.486C449.824,366.119 449.67,366.099 450.933,373.416C451.718,377.151 451.511,377.18 451.615,377.494C451.646,378.056 452.81,399.49 455.321,383.467C455.361,383.153 455.566,381.514 455.555,379.52C456.883,375.57 457.022,375.639 457.382,371.49C457.897,370.091 458.025,370.179 457.773,368.609L458.263,368.418C458.509,367.737 458.756,367.056 459.002,366.374L459.261,364.47L459.579,362.51C460.374,360.062 460.558,360.158 460.53,357.516C461.092,356.054 460.992,356.114 461.385,354.489C461.869,353.048 461.974,353.144 461.79,351.606C463.146,344.968 465.796,341.2 466.352,340.408C467.147,339.565 467.179,339.631 467.49,338.491C468.495,337.495 469.333,336.652 469.493,336.492C470.625,336.221 470.57,336.227 471.471,335.43C471.901,335.2 471.918,335.428 472.354,335.194C472.449,335.143 472.354,335.194 473.477,334.463C475.124,334.279 475.028,334.17 476.502,333.541L477.484,333.362C478.498,333.102 479.511,332.842 480.525,332.582L483.369,332.162C486.224,330.816 486.019,330.61 488.399,328.433C489.126,327.566 489.162,327.628 489.504,326.503C489.781,326.141 490.058,325.779 490.335,325.416C491.149,324.022 491.274,324.116 491.499,322.5C491.785,322.145 492.071,321.79 492.357,321.436C492.735,320.455 493.112,319.474 493.49,318.494C495.001,316.217 493.979,315.832 495.564,313.532C495.86,313.102 495.718,313.114 495.831,312.645C495.874,312.467 496.295,312.609 496.338,312.431C497.698,310.074 497.37,309.989 498.44,307.468C498.774,306.803 499.109,306.137 499.444,305.471C499.813,304.829 500.183,304.188 500.552,303.546C500.875,303.203 501.199,302.861 501.522,302.518C502.86,300.894 503.136,301.296 504.569,299.675C505.254,299.395 505.938,299.115 506.623,298.836C508.077,299.127 508.017,299.054 509.446,298.925C509.664,299.162 509.696,299.054 512.632,301.387C512.694,301.455 512.644,301.389 516.594,307.453C517.899,309.3 517.347,309.534 518.602,311.474C519.471,313.333 519.427,313.335 519.526,313.482C519.813,314.167 520.101,314.851 520.388,315.536L520.907,317.34C521.675,318.53 521.622,318.442 522.545,319.467C522.649,321.166 522.46,321.187 523.528,322.488C523.877,323.147 524.226,323.807 524.575,324.467C524.809,325.628 524.799,325.531 525.451,326.525C525.734,327.673 525.711,327.596 526.364,328.568C526.771,329.192 527.177,329.817 527.584,330.442C531.011,333.806 531.642,332.189 536.5,332.363L541.497,332.396C544.005,332.756 543.942,332.836 546.49,332.681C548.08,332.938 548,332.914 549.506,332.645C551.359,332.439 551.346,332.437 551.507,332.422C552.575,332.324 552.489,332.455 553.5,332.362L555.499,332.346C557.005,332.84 556.996,332.524 558.504,333.029L560.499,332.506C562.969,333.127 565.1,332.759 565.494,332.691C567.043,332.934 566.984,332.876 568.504,332.43L569.501,332.444L571.5,332.445C573.166,332.417 574.833,332.389 576.5,332.361C581.166,332.366 585.833,332.371 590.5,332.377C596.017,332.781 598.789,332.462 599.504,332.38L601.501,332.407C601.826,332.419 604.272,331.72 603.416,334.474C601.577,340.395 592.63,339.437 591.499,339.58L587.503,339.608C586.168,339.611 584.832,339.614 583.497,339.617L582.502,339.614C578.93,339.529 579.032,339.524 575.497,339.625L573.505,339.636C572.169,339.634 570.833,339.632 569.497,339.63L568.504,339.635C567.168,339.637 565.832,339.638 564.496,339.639L558.505,339.647C556.392,339.394 555.308,339.431 553.495,339.659C541.972,339.688 542.045,339.684 530.493,339.63C528.418,338.936 526.973,339.112 526.667,339.149C526.029,338.804 523.061,337.2 520.534,332.478C519.139,330.605 520.357,330.01 518.747,328.392C518.021,327.663 518.424,327.57 518.176,326.637C518.149,326.534 518.176,326.637 517.459,325.52C517.117,324.854 516.775,324.188 516.433,323.522C515.703,322.049 516.166,321.953 515.384,320.558C513.932,318.715 514.643,318.433 513.43,316.519C513.35,316.36 512.827,315.33 512.485,314.509C512.21,312.851 512.098,312.972 511.397,311.528C510.809,310.217 508.792,303.222 505.555,308.53C505.208,309.188 504.86,309.847 504.512,310.506C502.822,314.332 502.707,314.207 502.61,314.551C501.858,316.036 501.76,315.919 501.501,317.5C499.908,321.815 497.891,325.809 497.535,326.512C497.188,327.173 496.842,327.835 496.495,328.496C495.109,331.609 494.731,331.313 494.639,331.586C493.84,332.416 493.807,332.364 493.512,333.511C493.177,333.843 492.843,334.176 492.509,334.509C490.706,335.057 490.96,335.317 489.535,336.581C487.883,337.432 487.904,337.292 486.498,338.496C485.836,338.536 485.173,338.575 484.511,338.615C476.79,340.655 476.609,340.228 474.633,341.653C474.19,342.204 473.748,342.755 473.306,343.306L472.599,343.578C471.794,344.43 471.782,344.373 471.516,345.512C469.262,348.153 468.703,352.836 468.622,353.512C467.517,355.927 467.666,355.903 467.475,358.49C467.235,359.177 466.994,359.863 466.754,360.549C465.828,362.984 465.952,362.959 465.777,365.569C464.976,368.493 465.393,368.517 464.563,371.506C463.788,373.461 463.832,373.402 463.667,375.544C462.977,377.477 462.96,377.459 462.922,377.632C462.826,378.069 463.243,377.95 463.153,378.36C462.946,379.075 462.739,379.789 462.532,380.503C462.199,381.838 461.866,383.172 461.533,384.507C461.143,385.922 461.023,385.832 461.205,387.376C460.995,388.088 460.785,388.799 460.576,389.511C459.381,393.164 459.687,393.22 459.544,393.519C458.527,395.66 457.808,394.54 452.494,394.749C450.825,394.67 449.156,394.592 447.487,394.513C447.152,392.447 447.085,392.564 446.447,390.503C446.184,387.911 446.09,388.013 445.572,385.479C445.36,384.467 445.147,383.454 444.935,382.442C445.28,379.328 445.497,379.336 444.392,376.502C444.298,373.883 444.307,373.953 443.853,371.335C443.776,367.336 443.846,367.377 442.856,363.446C442.891,363.13 443.067,361.554 442.388,359.499C442.32,358.621 442.007,354.596 441.084,348.576C440.856,347.219 440.627,345.862 440.398,344.505L440.325,340.526L440.063,337.547C439.627,335.376 439.328,335.507 438.905,333.323C439.5,329.64 437.861,322.397 437.65,321.467C437.568,320.058 436.898,314.093 436.369,312.506C436.316,311.549 436.042,306.588 435.056,300.587C434.275,296.76 434.474,296.827 434.373,296.512C434.572,292.455 434.413,292.536 433.501,288.5L433.067,284.602C432.441,276.223 432.367,276.249 432.318,275.522C432.078,268.519 431.948,267.94 431.804,267.296C430.015,259.339 428.702,282.186 428.626,283.505C427.928,285.509 427.965,285.423 427.901,287.583L427.806,288.546C426.855,290.914 427.016,290.892 427.163,293.393C426.987,294.764 426.811,296.136 426.635,297.507L426.595,298.506C425.897,300.405 425.816,300.368 426.198,302.404C426.137,303.096 426.076,303.788 426.015,304.48C425.082,306.344 424.957,306.313 425.152,308.381C424.562,310.941 424.653,310.889 424.604,313.503C423.835,317.491 423.314,317.369 423.453,321.482L422.835,323.532C422.702,324.517 422.569,325.503 422.436,326.489L422.514,327.501C421.816,331.019 421.755,330.95 421.514,334.501C421.417,334.878 421.441,334.849 421.129,337.415C420.596,339.437 420.444,339.365 420.433,341.489L420.522,342.502C420.46,342.81 419.771,342.653 419.663,349.526C419.302,350.534 418.941,351.543 418.579,352.551C417.679,353.728 417.416,353.37 416.522,354.533C414.032,354.637 414.129,354.764 411.574,354.373C411.24,354.057 410.906,353.742 410.572,353.426C410.39,353.119 409.45,351.53 408.392,349.549L407.913,349.266L407.36,346.553C405.791,343.679 405.264,341.108 405.162,340.611L404.427,339.518C403.473,337.664 403.564,337.668 403.467,337.52C403.11,336.522 402.753,335.524 402.397,334.525C399.098,327.325 399.761,327.121 399.387,326.551C399.038,325.549 398.689,324.547 398.34,323.546C397.591,321.837 397.631,321.831 397.411,321.556C396.441,320.347 393.996,310.268 387.815,322.651C386.944,323.749 387.009,323.657 386.944,323.749C386.662,324.144 386.909,324.195 386.638,324.575L386.483,325.491C385.779,326.403 385.748,326.339 385.489,327.492C384.721,328.869 381.917,332.193 381.586,332.586C378.362,336.408 375.518,337.491 375.502,337.503C374.505,337.867 373.508,338.231 372.511,338.594C366.04,339.814 366.077,339.52 359.502,339.637C358.167,339.645 356.832,339.654 355.497,339.663L352.508,339.703L348.505,339.624C346.493,339.491 346.601,339.485 344.497,339.615L342.502,339.276C340.309,339.344 340.363,339.659 337.492,339.137C336.334,337.836 332.531,334.87 334.511,332.553C335.508,332.726 336.504,332.898 337.5,333.07L341.505,333.06L342.488,332.792C351.035,333.09 350.944,333.162 359.5,332.675C361.57,332.91 361.521,332.859 363.499,332.458C364.17,332.298 364.841,332.137 365.511,331.976C367.327,332.229 367.314,332.233 367.472,332.249C368.01,332.304 367.899,332.12 368.431,332.174L370.382,332.047C371.159,331.696 375.433,329.208 376.314,328.345C377.177,327.521 377.157,327.593 377.501,326.501C378.5,325.481 378.366,325.464 380.769,321.701C381.995,319.779 381.512,319.595 382.844,317.71C386.904,311.964 386.785,311.824 389.432,310.368C389.432,310.368 390.457,309.675 390.546,309.615C392.207,309.469 395.074,309.566 395.467,309.579C401.327,311.529 404.411,321.265 404.544,321.472C404.909,322.471 405.275,323.469 405.64,324.467C411.036,337.403 410.733,337.547 411.425,338.549C411.463,338.911 410.644,339.033 412.551,344.451C413.288,345.52 413.54,346.347 414.067,345.239C414.067,345.239 414.181,343.579 414.19,343.435C414.418,340.886 414.27,340.977 414.471,338.492C414.511,337.93 414.851,338.046 415.314,331.497L415.4,330.499C416.091,328.462 416.034,328.54 416.055,326.417L416.223,324.476L416.394,323.492C416.607,322.467 416.82,321.442 417.033,320.417C417.141,318.776 417.248,317.135 417.356,315.494C417.985,313.605 417.998,313.622 418.035,313.454C418.259,312.44 417.83,312.476 418.063,311.419C419.089,305.439 419.324,301.374 419.375,300.495C420.065,298.524 420.03,298.607 420.089,296.43C420.052,295.793 420.015,295.157 419.979,294.52C420.246,293.986 420.109,294.041 420.386,293.487C420.832,292.595 420.491,292.603 420.619,291.531L421.254,289.474C421.65,287.487 421.504,287.54 421.465,285.497C421.89,283.18 422.315,280.862 422.739,278.545L422.776,276.587C423.185,274.606 423.187,274.62 423.218,274.448C423.407,273.409 423.269,273.482 423.447,272.498C424.107,268.931 424.24,269.048 424.349,265.467C424.403,264.812 424.458,264.156 424.513,263.501C425.174,261.494 425.179,261.591 425.365,259.471L425.438,256.498C425.991,253.399 426.876,249.987 427.022,249.426C427.077,249.214 426.613,249.245 426.847,246.696C427.071,246.3 427.294,245.903 427.518,245.507C427.675,245.343 428.492,244.493 429.489,243.467Z" style="fill:rgb(31,160,81);fill-opacity:0.98;"/>
        <g transform="matrix(0.410649,0,0,0.410649,141.077767,106.967157)">
            <g transform="matrix(60,0,0,60,1411.667663,765.979214)">
            </g>
            <text x="368.008px" y="765.979px" style="font-family:'Montserrat-SemiBold', 'Montserrat';font-weight:600;font-size:60px;">SC<tspan x="446.788px 497.308px 543.868px 579.568px " y="765.979px 765.979px 765.979px 765.979px ">OUTS</tspan> EMERGENC<tspan x="993.028px " y="765.979px ">Y</tspan> RESPONSE</text>
        </g>
    </g>
    <g transform="matrix(1.349931,0,0,1.349931,76.843671,174.879443)">
        <g transform="matrix(1.030303,0,0,1.017413,-25.684591,-4.860605)">
            <path d="M847.588,209.741L847.588,274.498C847.588,277.059 845.535,279.138 843.006,279.138L827.859,279.138C825.331,279.138 823.277,277.059 823.277,274.498L823.277,209.741C823.277,207.18 825.331,205.101 827.859,205.101L843.006,205.101C845.535,205.101 847.588,207.18 847.588,209.741Z" style="fill:white;"/>
        </g>
        <g transform="matrix(0.002692,1.049624,-1.096387,0.002811,1097.046543,-635.858109)">
            <path d="M847.588,209.487L847.588,274.751C847.588,277.172 845.535,279.138 843.006,279.138L827.859,279.138C825.331,279.138 823.277,277.172 823.277,274.751L823.277,209.487C823.277,207.066 825.331,205.101 827.859,205.101L843.006,205.101C845.535,205.101 847.588,207.066 847.588,209.487Z" style="fill:white;"/>
        </g>
    </g>
    <g transform="matrix(1.58867,0,0,1.58867,-169.882582,-135.404367)">
        <g transform="matrix(1.030303,0,0,1.017413,-25.684591,-4.860605)">
            <path d="M847.588,209.741L847.588,274.498C847.588,277.059 845.535,279.138 843.006,279.138L827.859,279.138C825.331,279.138 823.277,277.059 823.277,274.498L823.277,209.741C823.277,207.18 825.331,205.101 827.859,205.101L843.006,205.101C845.535,205.101 847.588,207.18 847.588,209.741Z" style="fill:white;"/>
        </g>
        <g transform="matrix(0.002692,1.049624,-1.096387,0.002811,1097.046543,-635.858109)">
            <path d="M847.588,209.487L847.588,274.751C847.588,277.172 845.535,279.138 843.006,279.138L827.859,279.138C825.331,279.138 823.277,277.172 823.277,274.751L823.277,209.487C823.277,207.066 825.331,205.101 827.859,205.101L843.006,205.101C845.535,205.101 847.588,207.066 847.588,209.487Z" style="fill:white;"/>
        </g>
    </g>
    <g>
        <g transform="matrix(1.030303,0,0,1.017413,-25.684591,-4.860605)">
            <path d="M847.588,209.741L847.588,274.498C847.588,277.059 845.535,279.138 843.006,279.138L827.859,279.138C825.331,279.138 823.277,277.059 823.277,274.498L823.277,209.741C823.277,207.18 825.331,205.101 827.859,205.101L843.006,205.101C845.535,205.101 847.588,207.18 847.588,209.741Z" style="fill:white;"/>
        </g>
        <g transform="matrix(0.002692,1.049624,-1.096387,0.002811,1097.046543,-635.858109)">
            <path d="M847.588,209.487L847.588,274.751C847.588,277.172 845.535,279.138 843.006,279.138L827.859,279.138C825.331,279.138 823.277,277.172 823.277,274.751L823.277,209.487C823.277,207.066 825.331,205.101 827.859,205.101L843.006,205.101C845.535,205.101 847.588,207.066 847.588,209.487Z" style="fill:white;"/>
        </g>
    </g>
    <g transform="matrix(1,0,0,1,159.538764,-9.133342)">
        <g transform="matrix(52,0,0,52,969.718529,823.886374)">
        </g>
        <text x="469.676px" y="823.886px" style="font-family:'ArialMT', 'Arial', sans-serif;font-size:52px;">Compassion in <tspan x="825.195px 859.879px " y="823.886px 823.886px ">Ac</tspan>tion</text>
    </g>
</svg>
